# xmcd
#
# Track frame offsets:
#	150
#	20260
#	51120
#	65086
#	80852
#	97147
#	113391
#	137928
#	157227
#	173201
#	191835
#
# Disc length: 2784 seconds
#
# Revision: 0
# Processed by: cddbd v1.5.1PL2 Copyright (c) Steve Scherf et al.
# Submitted via: EasyCDDAExtractor 4.6.9.1
#
DISCID=9f0ade0b
DTITLE=Tom Russell - Love And Fear
DYEAR=2006
DGENRE=Country
TTITLE0=The Pugilist At 59
TTITLE1=Beautiful Trouble
TTITLE2=Stealing Electricity
TTITLE3=The Sound Of One Heart Breaking
TTITLE4=Ash Wednesday
TTITLE5=K.C. Violin
TTITLE6=Four Chambered Heart
TTITLE7=Stolen Children
TTITLE8=It Goes Away
TTITLE9=All The Fine Young Ladies
TTITLE10=Old Heart
EXTD=
EXTT0=
EXTT1=
EXTT2=
EXTT3=
EXTT4=
EXTT5=
EXTT6=
EXTT7=
EXTT8=
EXTT9=
EXTT10=
PLAYORDER=
